<?xml version="1.0" encoding="UTF-8" standalone="no"?>
<!-- Created with Inkscape (http://www.inkscape.org/) -->

<svg
   xmlns:dc="http://purl.org/dc/elements/1.1/"
   xmlns:cc="http://creativecommons.org/ns#"
   xmlns:rdf="http://www.w3.org/1999/02/22-rdf-syntax-ns#"
   xmlns:svg="http://www.w3.org/2000/svg"
   xmlns="http://www.w3.org/2000/svg"
   xmlns:sodipodi="http://sodipodi.sourceforge.net/DTD/sodipodi-0.dtd"
   xmlns:inkscape="http://www.inkscape.org/namespaces/inkscape"
   width="210mm"
   height="297mm"
   viewBox="0 0 210 297"
   version="1.1"
   id="svg2522"
   sodipodi:docname="PlatteOberseite_A3.svg"
   inkscape:version="0.92.3 (2405546, 2018-03-11)">
  <defs
     id="defs2516" />
  <sodipodi:namedview
     id="base"
     pagecolor="#ffffff"
     bordercolor="#666666"
     borderopacity="1.0"
     inkscape:pageopacity="0.0"
     inkscape:pageshadow="2"
     inkscape:zoom="0.7"
     inkscape:cx="311.47553"
     inkscape:cy="722.04494"
     inkscape:document-units="mm"
     inkscape:current-layer="layer1"
     showgrid="false"
     inkscape:window-width="1289"
     inkscape:window-height="938"
     inkscape:window-x="193"
     inkscape:window-y="71"
     inkscape:window-maximized="0" />
  <metadata
     id="metadata2519">
    <rdf:RDF>
      <cc:Work
         rdf:about="">
        <dc:format>image/svg+xml</dc:format>
        <dc:type
           rdf:resource="http://purl.org/dc/dcmitype/StillImage" />
      </cc:Work>
    </rdf:RDF>
  </metadata>
  <g
     inkscape:label="Ebene 1"
     inkscape:groupmode="layer"
     id="layer1">
    <path
       style="fill:#ffffff;fill-opacity:1;stroke:#000000;stroke-width:0.38746831;stroke-miterlimit:4;stroke-dasharray:none;stroke-opacity:1"
       d="M 397.14258 83.230469 A 425.00304 425.00304 0 0 0 4.2851562 346.94141 L 4.2851562 669.88867 A 425.00304 425.00304 0 0 0 397.14258 933.23633 A 425.00304 425.00304 0 0 0 791.42773 666.33398 L 791.42773 350.48242 A 425.00304 425.00304 0 0 0 397.14258 83.230469 z M 380.30664 165.92969 L 413.98047 165.92969 L 413.98047 187.14258 L 413.98047 270.16016 L 413.98047 459.25391 L 585.96484 459.25391 L 585.96484 557.21094 L 413.98047 557.21094 L 413.98047 815.96875 L 414.04492 815.96875 L 414.04492 849.83594 L 380.26367 849.83594 L 380.26367 815.96875 L 380.30664 815.96875 L 380.30664 557.21094 L 208.32227 557.21094 L 208.32227 459.25391 L 380.30664 459.25391 L 380.30664 270.16016 L 380.30664 187.14258 L 380.30664 165.92969 z "
       transform="scale(0.26458333)"
       id="path7488" />
  </g>
</svg>
