<?xml version="1.0" encoding="UTF-8" standalone="no"?>
<!-- Created with Inkscape (http://www.inkscape.org/) -->

<svg
   xmlns:dc="http://purl.org/dc/elements/1.1/"
   xmlns:cc="http://creativecommons.org/ns#"
   xmlns:rdf="http://www.w3.org/1999/02/22-rdf-syntax-ns#"
   xmlns:svg="http://www.w3.org/2000/svg"
   xmlns="http://www.w3.org/2000/svg"
   xmlns:sodipodi="http://sodipodi.sourceforge.net/DTD/sodipodi-0.dtd"
   xmlns:inkscape="http://www.inkscape.org/namespaces/inkscape"
   width="210mm"
   height="297mm"
   viewBox="0 0 210 297"
   version="1.1"
   id="svg8"
   inkscape:version="0.92.3 (2405546, 2018-03-11)"
   sodipodi:docname="Rad_leicht_A3.svg">
  <defs
     id="defs2">
    <clipPath
       clipPathUnits="userSpaceOnUse"
       id="clipPath4554">
      <g
         id="use4556"
         inkscape:label="Clip">
        <path
           style="fill:#ffffff;fill-opacity:1;stroke:#000000;stroke-width:0.16730736;stroke-miterlimit:4;stroke-dasharray:none;stroke-opacity:1"
           d="m 18.239713,37.174992 v 2.732649 h 4.733045 v -2.732649 z"
           id="path4575"
           inkscape:connector-curvature="0" />
      </g>
    </clipPath>
  </defs>
  <sodipodi:namedview
     id="base"
     pagecolor="#ffffff"
     bordercolor="#666666"
     borderopacity="1.0"
     inkscape:pageopacity="0.0"
     inkscape:pageshadow="2"
     inkscape:zoom="0.82519531"
     inkscape:cx="437.6175"
     inkscape:cy="662.86612"
     inkscape:document-units="mm"
     inkscape:current-layer="layer1"
     showgrid="false"
     inkscape:measure-start="0,0"
     inkscape:measure-end="0,0"
     inkscape:window-width="1437"
     inkscape:window-height="1018"
     inkscape:window-x="164"
     inkscape:window-y="0"
     inkscape:window-maximized="0" />
  <metadata
     id="metadata5">
    <rdf:RDF>
      <cc:Work
         rdf:about="">
        <dc:format>image/svg+xml</dc:format>
        <dc:type
           rdf:resource="http://purl.org/dc/dcmitype/StillImage" />
        <dc:title></dc:title>
      </cc:Work>
    </rdf:RDF>
  </metadata>
  <g
     inkscape:label="Ebene 1"
     inkscape:groupmode="layer"
     id="layer1">
    <path
       style="fill:#ffffff;fill-opacity:1;stroke:#000000;stroke-width:0.37795275;stroke-miterlimit:4;stroke-dasharray:none;stroke-opacity:1"
       d="M 380.82422 37.929688 A 370.00001 370.00001 0 0 0 159.69141 129.72461 L 196.49609 166.5293 A 66.044963 66.044963 0 0 1 270.53125 179.86328 A 66.044963 66.044963 0 0 1 270.53125 273.26562 A 66.044963 66.044963 0 0 1 177.12891 273.26562 A 66.044963 66.044963 0 0 1 163.76367 199.19531 L 126.9668 162.40039 A 370.00001 370.00001 0 0 0 35.746094 384.15625 L 87.195312 384.15625 A 66.044967 66.044967 0 0 1 148.97461 341.23438 A 66.044967 66.044967 0 0 1 215.01953 407.2793 A 66.044967 66.044967 0 0 1 148.97461 473.32422 A 66.044967 66.044967 0 0 1 87.148438 430.40039 L 35.570312 430.40039 A 370.00001 370.00001 0 0 0 127.17969 651.09375 L 163.54688 614.72852 A 66.044967 66.044967 0 0 1 176.88086 540.69336 A 66.044967 66.044967 0 0 1 270.28125 540.69336 A 66.044967 66.044967 0 0 1 270.28125 634.0957 A 66.044967 66.044967 0 0 1 196.21289 647.46094 L 159.8457 683.82617 A 370.00001 370.00001 0 0 0 381.17383 775.75195 L 381.17383 724.02734 A 66.044959 66.044959 0 0 1 338.25195 662.24805 A 66.044959 66.044959 0 0 1 404.29688 596.20312 A 66.044959 66.044959 0 0 1 470.3418 662.24805 A 66.044959 66.044959 0 0 1 427.41797 724.07422 L 427.41797 775.62891 A 370.00001 370.00001 0 0 0 648.27148 684.20312 L 611.74609 647.67773 A 66.044959 66.044959 0 0 1 537.71094 634.34375 A 66.044959 66.044959 0 0 1 537.71094 540.94141 A 66.044959 66.044959 0 0 1 631.11133 540.94141 A 66.044959 66.044959 0 0 1 644.47852 615.01172 L 681.05469 651.58789 A 370.00001 370.00001 0 0 0 772.78125 430.05078 L 721.04297 430.05078 A 66.044963 66.044963 0 0 1 659.26367 472.97266 A 66.044963 66.044963 0 0 1 593.21875 406.92773 A 66.044963 66.044963 0 0 1 659.26367 340.88281 A 66.044963 66.044963 0 0 1 721.08984 383.80664 L 773.06641 383.80664 A 370.00001 370.00001 0 0 0 681.64648 162.52734 L 644.69531 199.47852 A 66.044963 66.044963 0 0 1 631.36133 273.51367 A 66.044963 66.044963 0 0 1 537.95898 273.51367 A 66.044963 66.044963 0 0 1 537.95898 180.11133 A 66.044963 66.044963 0 0 1 612.0293 166.74609 L 649.02148 129.75391 A 370.00001 370.00001 0 0 0 427.06836 38.146484 L 427.06836 90.179688 A 66.044963 66.044963 0 0 1 469.99023 151.95898 A 66.044963 66.044963 0 0 1 403.94531 218.00391 A 66.044963 66.044963 0 0 1 337.90039 151.95898 A 66.044963 66.044963 0 0 1 380.82422 90.132812 L 380.82422 37.929688 z M 363.32031 244.53125 A 62.189096 62.189096 0 0 1 420.32227 282.91992 A 62.189096 62.189096 0 0 1 386.66602 364.17383 A 62.189096 62.189096 0 0 1 305.41211 330.51758 A 62.189096 62.189096 0 0 1 339.06836 249.26367 A 62.189096 62.189096 0 0 1 363.32031 244.53125 z M 304.65039 386.10547 A 62.189097 62.189097 0 0 1 361.65234 424.49414 A 62.189097 62.189097 0 0 1 327.99414 505.74805 A 62.189097 62.189097 0 0 1 246.74023 472.08984 A 62.189097 62.189097 0 0 1 280.39648 390.83594 A 62.189097 62.189097 0 0 1 304.65039 386.10547 z M 397.23633 401.54883 L 411.37305 401.54883 A 8.7968906 8.6548288 0 0 1 413.09375 406.67969 A 8.7968906 8.6548288 0 0 1 411.35742 411.80859 L 397.2207 411.80859 A 8.7968906 8.6548288 0 0 1 395.5 406.67969 A 8.7968906 8.6548288 0 0 1 397.23633 401.54883 z M 446.22266 444.77539 A 62.189098 62.189098 0 0 1 503.22461 483.16406 A 62.189098 62.189098 0 0 1 469.56836 564.41797 A 62.189098 62.189098 0 0 1 388.31445 530.76172 A 62.189098 62.189098 0 0 1 421.9707 449.50781 A 62.189098 62.189098 0 0 1 446.22266 444.77539 z "
       transform="scale(0.26458333)"
       id="path3725" />
    <path
       style="fill:#ffffff;fill-opacity:1;stroke:#000000;stroke-width:0.1;stroke-miterlimit:4;stroke-dasharray:none;stroke-opacity:1"
       d="m 185.7482,260.03664 a 11.676104,11.676104 0 0 0 -11.67629,11.67628 11.676104,11.676104 0 0 0 11.67629,11.67578 11.676104,11.676104 0 0 0 11.67629,-11.67578 11.676104,11.676104 0 0 0 -11.67629,-11.67628 z m -1.80764,10.34874 h 3.61941 a 2.2522764,2.2390564 0 0 1 0.44029,1.32754 2.2522764,2.2390564 0 0 1 -0.44442,1.32707 h -3.61942 a 2.2522764,2.2390564 0 0 1 -0.44028,-1.32707 2.2522764,2.2390564 0 0 1 0.44442,-1.32754 z"
       id="path1461"
       inkscape:connector-curvature="0" />
    <path
       style="fill:#ffffff;fill-opacity:1;stroke:#000000;stroke-width:0.4023391;stroke-miterlimit:4;stroke-dasharray:none;stroke-opacity:1"
       d="M 704.84961 848.14648 A 45.15316 45.15316 0 0 0 659.69727 893.30078 A 45.15316 45.15316 0 0 0 704.84961 938.45312 A 45.15316 45.15316 0 0 0 750.00391 893.30078 A 45.15316 45.15316 0 0 0 704.84961 848.14648 z M 697.86914 888.19336 L 711.84766 888.19336 A 8.6979201 8.6158636 0 0 1 713.54883 893.30078 A 8.6979201 8.6158636 0 0 1 711.83008 898.4082 L 697.85352 898.4082 A 8.6979201 8.6158636 0 0 1 696.15234 893.30078 A 8.6979201 8.6158636 0 0 1 697.86914 888.19336 z "
       transform="scale(0.26458333)"
       id="path1465" />
    <path
       style="fill:#ffffff;fill-opacity:1;stroke:#000000;stroke-width:0.10645222;stroke-miterlimit:4;stroke-dasharray:none;stroke-opacity:1"
       d="m 151.29968,259.27708 a 11.946773,11.946773 0 0 0 -11.94707,11.94657 11.946773,11.946773 0 0 0 11.94707,11.94707 11.946773,11.946773 0 0 0 11.94656,-11.94707 11.946773,11.946773 0 0 0 -11.94656,-11.94657 z m -1.80816,10.61952 h 3.61994 a 2.2522764,2.2390564 0 0 1 0.44028,1.32705 2.2522764,2.2390564 0 0 1 -0.44494,1.32757 h -3.61889 a 2.2522764,2.2390564 0 0 1 -0.44081,-1.32757 2.2522764,2.2390564 0 0 1 0.44442,-1.32705 z"
       id="path1465-8"
       inkscape:connector-curvature="0" />
    <path
       style="fill:#ffffff;fill-opacity:1;stroke:#000000;stroke-width:0.4023391;stroke-miterlimit:4;stroke-dasharray:none;stroke-opacity:1"
       d="M 569.81445 848.07617 A 45.15316 45.15316 0 0 0 524.66211 893.23047 A 45.15316 45.15316 0 0 0 569.81445 938.38281 A 45.15316 45.15316 0 0 0 614.96875 893.23047 A 45.15316 45.15316 0 0 0 569.81445 848.07617 z M 562.83398 888.12305 L 576.8125 888.12305 A 8.6979201 8.6158636 0 0 1 578.51367 893.23047 A 8.6979201 8.6158636 0 0 1 576.79492 898.33789 L 562.81836 898.33789 A 8.6979201 8.6158636 0 0 1 561.11719 893.23047 A 8.6979201 8.6158636 0 0 1 562.83398 888.12305 z "
       transform="scale(0.26458333)"
       id="path1465-9" />
    <circle
       transform="rotate(67.5)"
       r="16.454199"
       cy="-86.310638"
       cx="140.3923"
       id="use943"
       style="fill:#ffffff;fill-opacity:1;stroke:#000000;stroke-width:0.10263629;stroke-miterlimit:4;stroke-dasharray:none;stroke-opacity:1" />
  </g>
</svg>
